<?xml version="1.0" standalone="no"?>
<!DOCTYPE svg PUBLIC "-//W3C//DTD SVG 20010904//EN"
 "http://www.w3.org/TR/2001/REC-SVG-20010904/DTD/svg10.dtd">
<svg version="1.0" xmlns="http://www.w3.org/2000/svg"
 width="128.000000pt" height="128.000000pt" viewBox="0 0 128.000000 128.000000"
 preserveAspectRatio="xMidYMid meet">
<metadata>
Created by potrace 1.15, written by Peter Selinger 2001-2017
</metadata>
<g transform="translate(0.000000,128.000000) scale(0.100000,-0.100000)"
fill="#000000" stroke="none">
<path d="M433 1045 c-65 -33 -136 -95 -186 -165 -12 -16 -16 -19 -13 -7 4 11
2 16 -5 12 -5 -4 -7 -15 -4 -26 5 -13 2 -19 -7 -17 -8 2 -12 -5 -11 -20 2 -13
-1 -21 -6 -18 -12 8 -16 -5 -31 -91 -43 -238 118 -476 359 -533 33 -8 88 -11
143 -8 80 5 99 10 173 47 201 100 301 311 250 529 -17 73 -51 143 -66 139 -7
-1 -14 4 -17 12 -3 9 0 11 8 6 9 -6 11 -4 6 4 -5 7 -11 10 -14 7 -3 -3 -31 19
-63 49 -54 51 -165 115 -199 115 -8 0 10 -11 41 -24 82 -33 123 -61 173 -117
57 -63 93 -137 107 -217 13 -70 5 -148 -16 -159 -7 -5 -22 -31 -33 -59 -42
-112 -131 -202 -239 -245 -81 -32 -215 -32 -296 0 -107 42 -197 133 -238 242
-11 27 -28 58 -39 69 -25 25 -27 99 -4 185 37 144 143 257 289 307 27 10 40
17 29 18 -12 0 -53 -16 -91 -35z"/>
<path d="M1180 498 c-19 -70 -81 -178 -136 -237 -56 -60 -128 -108 -221 -147
-55 -23 -56 -24 -18 -19 230 35 402 113 451 207 8 15 14 54 14 86 0 49 -5 66
-29 100 -42 57 -49 58 -61 10z"/>
<path d="M42 486 c-27 -37 -32 -53 -32 -101 0 -46 5 -64 30 -100 37 -54 120
-105 225 -139 182 -58 235 -60 124 -4 -135 67 -246 195 -289 333 -7 22 -16 43
-19 48 -4 4 -22 -13 -39 -37z"/>
</g>
</svg>
