<?xml version="1.0" standalone="no"?>
<!DOCTYPE svg PUBLIC "-//W3C//DTD SVG 20010904//EN"
 "http://www.w3.org/TR/2001/REC-SVG-20010904/DTD/svg10.dtd">
<svg version="1.0" xmlns="http://www.w3.org/2000/svg"
 width="128.000000pt" height="128.000000pt" viewBox="0 0 128.000000 128.000000"
 preserveAspectRatio="xMidYMid meet">
<metadata>
Created by potrace 1.15, written by Peter Selinger 2001-2017
</metadata>
<g transform="translate(0.000000,128.000000) scale(0.100000,-0.100000)"
fill="#000000" stroke="none">
<path d="M505 1076 c-71 -22 -128 -57 -188 -115 -33 -31 -62 -55 -66 -54 -3 1
-8 -1 -11 -4 -3 -4 1 -3 8 1 17 10 15 -6 -4 -30 -13 -16 -15 -16 -10 -1 8 27
-2 20 -19 -12 -8 -17 -12 -38 -8 -47 4 -11 3 -15 -4 -11 -14 9 -17 -2 -33 -90
-43 -238 118 -476 359 -533 33 -8 88 -11 143 -8 80 5 99 10 173 47 201 100
301 311 250 529 -17 73 -51 143 -66 139 -7 -1 -14 4 -17 12 -3 9 0 11 8 6 9
-6 11 -4 6 4 -5 7 -11 10 -14 7 -3 -3 -31 19 -63 49 -54 51 -165 115 -199 115
-8 0 10 -11 41 -24 108 -44 177 -102 232 -197 55 -94 75 -251 37 -289 -11 -11
-29 -44 -40 -73 -40 -106 -130 -196 -237 -238 -81 -32 -214 -32 -296 0 -107
42 -197 133 -238 242 -11 27 -28 58 -39 69 -41 41 -18 197 45 300 61 100 143
162 265 201 30 9 48 17 40 17 -8 1 -33 -5 -55 -12z"/>
<path d="M1180 498 c-19 -70 -81 -178 -136 -237 -56 -60 -128 -108 -221 -147
-55 -23 -56 -24 -18 -19 230 35 402 113 451 207 8 15 14 54 14 86 0 49 -5 66
-29 100 -42 57 -49 58 -61 10z"/>
<path d="M42 486 c-27 -37 -32 -53 -32 -101 0 -46 5 -64 30 -100 37 -54 120
-105 225 -139 182 -58 235 -60 124 -4 -135 67 -246 195 -289 333 -7 22 -16 43
-19 48 -4 4 -22 -13 -39 -37z"/>
</g>
</svg>
